<?xml version="1.0" standalone="no"?>
<!DOCTYPE svg PUBLIC "-//W3C//DTD SVG 20010904//EN"
 "http://www.w3.org/TR/2001/REC-SVG-20010904/DTD/svg10.dtd">
<svg version="1.0" xmlns="http://www.w3.org/2000/svg"
 width="700.000000pt" height="700.000000pt" viewBox="0 0 700.000000 700.000000"
 preserveAspectRatio="xMidYMid meet">
<metadata>
Created by potrace 1.14, written by Peter Selinger 2001-2017
</metadata>
<g transform="translate(0.000000,700.000000) scale(0.100000,-0.100000)"
fill="#000000" stroke="none">
<path d="M3310 6963 c-354 -34 -547 -72 -815 -160 -905 -295 -1640 -964 -2020
-1838 -112 -256 -206 -585 -239 -830 -3 -22 -11 -71 -17 -110 -19 -124 -22
-571 -4 -740 67 -634 315 -1237 714 -1735 562 -700 1370 -1143 2256 -1235 256
-27 640 -16 889 25 1149 190 2136 985 2559 2060 106 271 189 597 212 835 4 39
9 81 11 95 3 14 8 111 11 216 25 826 -263 1633 -811 2270 -86 100 -278 288
-381 375 -358 297 -777 520 -1219 649 -129 37 -355 84 -481 100 -49 6 -106 13
-125 16 -42 6 -491 12 -540 7z"/>
</g>
</svg>
